<?xml version="1.0" standalone="no"?>
<!DOCTYPE svg PUBLIC "-//W3C//DTD SVG 20010904//EN"
 "http://www.w3.org/TR/2001/REC-SVG-20010904/DTD/svg10.dtd">
<svg version="1.0" xmlns="http://www.w3.org/2000/svg"
 width="80.000000pt" height="80.000000pt" viewBox="0 0 80.000000 80.000000"
 preserveAspectRatio="xMidYMid meet">
<metadata>
Created by potrace 1.14, written by Peter Selinger 2001-2017
</metadata>
<g transform="translate(0.000000,80.000000) scale(0.100000,-0.100000)"
fill="#000000" stroke="none">
<path d="M570 724 c-78 -21 -135 -58 -212 -136 l-66 -68 -59 0 c-57 0 -60 -2
-106 -48 -26 -26 -47 -52 -47 -58 0 -6 13 -23 30 -39 16 -16 30 -36 30 -45 0
-8 -14 -44 -31 -80 -23 -46 -33 -84 -37 -132 l-5 -68 39 0 c56 1 113 16 143
38 14 10 42 24 61 31 34 12 36 11 67 -26 l32 -38 56 55 55 54 0 64 c0 63 0 63
60 133 33 38 71 92 86 120 28 56 54 161 54 222 l0 37 -47 -1 c-27 0 -73 -7
-103 -15z m9 -139 l63 -65 -24 -40 c-12 -21 -51 -71 -85 -109 -61 -68 -63 -71
-63 -126 0 -57 -28 -115 -55 -115 -15 0 -192 179 -241 243 l-36 49 28 29 c25
26 34 29 90 29 61 0 62 0 99 46 42 51 130 124 149 124 7 0 41 -29 75 -65z
m-367 -382 c15 -15 28 -31 28 -35 0 -9 -61 -38 -80 -38 -13 0 -13 41 0 74 12
32 17 32 52 -1z"/>
</g>
</svg>
